<svg width="48" height="44" viewBox="0 0 48 44" fill="none" xmlns="http://www.w3.org/2000/svg">
<path fill-rule="evenodd" clip-rule="evenodd" d="M0 13.9998C0 32.0265 18.1196 42.0554 24 43.3332C29.8804 42.0554 48 32.0265 48 13.9998C48 6.63604 42.0305 0.666504 34.6667 0.666504C30.3051 0.666504 26.4326 2.76075 24 5.99854C21.5674 2.76075 17.6949 0.666504 13.3333 0.666504C5.96954 0.666504 0 6.63604 0 13.9998ZM42.6667 13.9998C42.6667 25.1873 32.3204 35.5185 24 37.9998C15.6796 35.5185 5.33333 25.1873 5.33333 13.9998C5.33333 9.58156 8.91506 5.99984 13.3333 5.99984C18.5525 5.99984 24 12.6665 24 12.6665C24 12.6665 29.4475 5.99984 34.6667 5.99984C39.0849 5.99984 42.6667 9.58156 42.6667 13.9998Z" fill="black"/>
</svg>
