<svg width="54" height="48" viewBox="0 0 54 48" fill="none" xmlns="http://www.w3.org/2000/svg">
<path d="M48.7599 5.33312C45.9332 2.49901 42.1861 0.76923 38.1955 0.456243C34.2049 0.143256 30.234 1.2677 26.9999 3.62646C23.607 1.10282 19.3839 -0.0415133 15.181 0.42389C10.9782 0.889293 7.10776 2.92986 4.34918 6.13468C1.59061 9.3395 0.14878 13.4705 0.314057 17.6958C0.479334 21.9211 2.23944 25.9269 5.23992 28.9065L21.7999 45.4931C23.1866 46.8579 25.0543 47.6228 26.9999 47.6228C28.9456 47.6228 30.8132 46.8579 32.1999 45.4931L48.7599 28.9065C51.8735 25.7738 53.621 21.5365 53.621 17.1198C53.621 12.7031 51.8735 8.46575 48.7599 5.33312V5.33312ZM44.9999 25.2265L28.4399 41.7865C28.2515 41.9767 28.0272 42.1278 27.78 42.2309C27.5329 42.3339 27.2677 42.387 26.9999 42.387C26.7321 42.387 26.467 42.3339 26.2198 42.2309C25.9726 42.1278 25.7484 41.9767 25.5599 41.7865L8.99992 25.1465C6.90861 23.0087 5.73755 20.137 5.73755 17.1465C5.73755 14.1559 6.90861 11.2842 8.99992 9.14646C11.131 7.04242 14.0052 5.86264 16.9999 5.86264C19.9947 5.86264 22.8688 7.04242 24.9999 9.14646C25.2478 9.3964 25.5428 9.59478 25.8677 9.73017C26.1927 9.86555 26.5412 9.93525 26.8933 9.93525C27.2453 9.93525 27.5938 9.86555 27.9188 9.73017C28.2438 9.59478 28.5387 9.3964 28.7866 9.14646C30.9177 7.04242 33.7919 5.86264 36.7866 5.86264C39.7813 5.86264 42.6555 7.04242 44.7866 9.14646C46.9066 11.2562 48.1162 14.1123 48.156 17.103C48.1959 20.0936 47.063 22.9809 44.9999 25.1465V25.2265Z" fill="black"/>
</svg>
