<svg width="100" height="100" viewBox="0 0 100 100" fill="none" xmlns="http://www.w3.org/2000/svg">
<circle cx="50" cy="45" r="30" fill="white"/>
<path d="M76.5167 72.3498L50 98.8665L23.4834 72.3498C18.2389 67.1054 14.6674 60.4235 13.2205 53.1492C11.7736 45.8749 12.5163 38.335 15.3546 31.4828C18.1929 24.6306 22.9993 18.7739 29.1662 14.6534C35.333 10.5328 42.5832 8.3335 50 8.3335C57.4168 8.3335 64.667 10.5328 70.8338 14.6534C77.0007 18.7739 81.8072 24.6306 84.6455 31.4828C87.4838 38.335 88.2264 45.8749 86.7795 53.1492C85.3326 60.4235 81.7611 67.1054 76.5167 72.3498ZM50 62.4998C54.4203 62.4998 58.6595 60.7439 61.7851 57.6183C64.9107 54.4927 66.6667 50.2534 66.6667 45.8332C66.6667 41.4129 64.9107 37.1737 61.7851 34.0481C58.6595 30.9225 54.4203 29.1665 50 29.1665C45.5797 29.1665 41.3405 30.9225 38.2149 34.0481C35.0893 37.1737 33.3333 41.4129 33.3333 45.8332C33.3333 50.2534 35.0893 54.4927 38.2149 57.6183C41.3405 60.7439 45.5797 62.4998 50 62.4998ZM50 54.1665C47.7899 54.1665 45.6703 53.2885 44.1075 51.7257C42.5447 50.1629 41.6667 48.0433 41.6667 45.8332C41.6667 43.623 42.5447 41.5034 44.1075 39.9406C45.6703 38.3778 47.7899 37.4998 50 37.4998C52.2102 37.4998 54.3298 38.3778 55.8926 39.9406C57.4554 41.5034 58.3333 43.623 58.3333 45.8332C58.3333 48.0433 57.4554 50.1629 55.8926 51.7257C54.3298 53.2885 52.2102 54.1665 50 54.1665Z" fill="#F84545"/>
</svg>
