<svg width="40" height="25" viewBox="0 0 40 25" fill="none" xmlns="http://www.w3.org/2000/svg">
<path d="M2 4.93872H38C38.5304 4.93872 39.0391 4.72801 39.4142 4.35293C39.7893 3.97786 40 3.46915 40 2.93872C40 2.40829 39.7893 1.89958 39.4142 1.52451C39.0391 1.14943 38.5304 0.938721 38 0.938721H2C1.46957 0.938721 0.960859 1.14943 0.585786 1.52451C0.210714 1.89958 0 2.40829 0 2.93872C0 3.46915 0.210714 3.97786 0.585786 4.35293C0.960859 4.72801 1.46957 4.93872 2 4.93872V4.93872ZM38 20.9387H2C1.46957 20.9387 0.960859 21.1494 0.585786 21.5245C0.210714 21.8996 0 22.4083 0 22.9387C0 23.4692 0.210714 23.9779 0.585786 24.3529C0.960859 24.728 1.46957 24.9387 2 24.9387H38C38.5304 24.9387 39.0391 24.728 39.4142 24.3529C39.7893 23.9779 40 23.4692 40 22.9387C40 22.4083 39.7893 21.8996 39.4142 21.5245C39.0391 21.1494 38.5304 20.9387 38 20.9387ZM38 10.9387H2C1.46957 10.9387 0.960859 11.1494 0.585786 11.5245C0.210714 11.8996 0 12.4083 0 12.9387C0 13.4692 0.210714 13.9779 0.585786 14.3529C0.960859 14.728 1.46957 14.9387 2 14.9387H38C38.5304 14.9387 39.0391 14.728 39.4142 14.3529C39.7893 13.9779 40 13.4692 40 12.9387C40 12.4083 39.7893 11.8996 39.4142 11.5245C39.0391 11.1494 38.5304 10.9387 38 10.9387Z" fill="black"/>
</svg>
