<svg width="48" height="48" viewBox="0 0 48 48" fill="none" xmlns="http://www.w3.org/2000/svg">
<path d="M23.9999 0.666504C20.9358 0.666504 17.9016 1.27004 15.0707 2.44265C12.2397 3.61526 9.66747 5.33398 7.50077 7.50068C3.12492 11.8765 0.666598 17.8115 0.666598 23.9998C0.6462 29.3878 2.51178 34.6131 5.93993 38.7698L1.27326 43.4365C0.949497 43.7646 0.730173 44.1813 0.642966 44.6339C0.55576 45.0866 0.60458 45.5549 0.783265 45.9798C0.977067 46.3997 1.29124 46.7525 1.68591 46.9934C2.08057 47.2344 2.53793 47.3526 2.99993 47.3332H23.9999C30.1883 47.3332 36.1232 44.8748 40.4991 40.499C44.8749 36.1231 47.3333 30.1882 47.3333 23.9998C47.3333 17.8115 44.8749 11.8765 40.4991 7.50068C36.1232 3.12483 30.1883 0.666504 23.9999 0.666504V0.666504ZM23.9999 42.6665H8.62327L10.7933 40.4965C11.2279 40.0593 11.4718 39.4679 11.4718 38.8515C11.4718 38.2351 11.2279 37.6437 10.7933 37.2065C7.73797 34.1546 5.83534 30.1378 5.40954 25.8404C4.98375 21.543 6.06113 17.2309 8.45813 13.6387C10.8551 10.0466 14.4234 7.39667 18.5551 6.14044C22.6868 4.88421 27.1263 5.09938 31.1171 6.7493C35.1079 8.39922 38.4033 11.3818 40.4416 15.1889C42.48 18.996 43.1353 23.3921 42.2959 27.6282C41.4565 31.8643 39.1743 35.6783 35.8382 38.4204C32.5021 41.1625 28.3184 42.6631 23.9999 42.6665V42.6665Z" fill="black"/>
</svg>
